<?xml version="1.0" encoding="UTF-8" standalone="no"?>
<!-- Created with Inkscape (http://www.inkscape.org/) -->

<svg
   width="557.17499"
   height="530.47589"
   viewBox="0 0 147.41921 140.35508"
   version="1.1"
   id="svg1"
   xmlns="http://www.w3.org/2000/svg"
   xmlns:svg="http://www.w3.org/2000/svg">
  <defs
     id="defs1" />
  <g
     id="layer1"
     transform="translate(-10.95706,-14.489126)">
    <g
       id="g2"
       transform="matrix(0.26458333,0,0,0.26458333,433.58702,21.436978)">
      <path
         id="path4366"
         style="fill:#ff0000"
         d="m -1489.8746,504.2127 171.77,-126.23 172.59,125.11 -66.972,-202.37 172.32,-125.48 -213.16,1.1577 -66.086,-202.66 -64.769,203.09 -213.16,0.22591 173.13,124.36 -65.656,202.8 z" />
      <g
         id="g7159"
         transform="translate(2.6254,1.3127)"
         style="fill:#000000">
        <g
           id="g6279"
           style="fill:#000000"
           transform="matrix(0.50627,0.55454,-0.55454,0.50627,-1224.3,-288.56)">
          <rect
             id="rect6281"
             style="opacity:0.96;fill:#000000"
             transform="rotate(0.095002)"
             ry="2.5158"
             height="15.724"
             width="15.724"
             y="571.81"
             x="330.95001" />
          <rect
             id="rect6283"
             style="opacity:0.96;fill:#000000"
             transform="rotate(0.095002)"
             ry="2.5158"
             height="15.724"
             width="15.724"
             y="571.81"
             x="350.03" />
          <rect
             id="rect6285"
             style="opacity:0.96;fill:#000000"
             transform="rotate(0.095002)"
             ry="2.5158"
             height="15.724"
             width="15.724"
             y="571.81"
             x="370.57001" />
          <rect
             id="rect6287"
             style="opacity:0.96;fill:#000000"
             transform="rotate(0.095002)"
             ry="2.5158"
             height="15.724"
             width="15.724"
             y="571.81"
             x="390.39001" />
          <rect
             id="rect6289"
             style="opacity:0.96;fill:#000000"
             transform="rotate(0.095002)"
             ry="2.5158"
             height="15.724"
             width="15.724"
             y="571.81"
             x="411.66" />
          <rect
             id="rect6291"
             style="opacity:0.96;fill:#000000"
             transform="rotate(0.095002)"
             ry="2.5158"
             height="15.724"
             width="15.724"
             y="571.81"
             x="430.73999" />
          <rect
             id="rect6293"
             style="opacity:0.96;fill:#000000"
             transform="rotate(0.095002)"
             ry="2.5158"
             height="15.724"
             width="15.724"
             y="571.81"
             x="452.76001" />
          <rect
             id="rect6295"
             style="opacity:0.96;fill:#000000"
             transform="rotate(0.095002)"
             ry="2.5158"
             height="15.724"
             width="15.724"
             y="571.81"
             x="473.29999" />
          <rect
             id="rect6297"
             style="opacity:0.96;fill:#000000"
             transform="rotate(0.095002)"
             ry="2.5158"
             height="15.724"
             width="15.724"
             y="571.81"
             x="495.32001" />
          <rect
             id="rect6299"
             style="opacity:0.96;fill:#000000"
             transform="rotate(0.095002)"
             ry="2.5158"
             height="15.724"
             width="15.724"
             y="571.81"
             x="515.85999" />
          <rect
             id="rect6301"
             style="opacity:0.96;fill:#000000"
             transform="rotate(0.095002)"
             ry="2.5158"
             height="15.724"
             width="15.724"
             y="571.81"
             x="537.88" />
          <rect
             id="rect6303"
             style="opacity:0.96;fill:#000000"
             transform="rotate(0.095002)"
             ry="2.5158"
             height="15.724"
             width="15.724"
             y="571.81"
             x="558.41998" />
          <rect
             id="rect6305"
             style="opacity:0.96;fill:#000000"
             transform="rotate(0.095002)"
             ry="2.5158"
             height="15.724"
             width="15.724"
             y="571.81"
             x="580.44" />
          <rect
             id="rect6307"
             style="opacity:0.96;fill:#000000"
             transform="rotate(0.095002)"
             ry="2.5158"
             height="15.724"
             width="35.903"
             y="571.81"
             x="601.71997" />
          <rect
             id="rect6309"
             style="opacity:0.96;fill:#000000"
             transform="rotate(0.095002)"
             ry="2.5158"
             height="15.724"
             width="26.731001"
             y="591.81"
             x="330.98001" />
          <rect
             id="rect6311"
             style="opacity:0.96;fill:#000000"
             transform="rotate(0.095002)"
             ry="2.5158"
             height="15.724"
             width="15.724"
             y="591.81"
             x="361.32999" />
          <rect
             id="rect6313"
             style="opacity:0.96;fill:#000000"
             transform="rotate(0.095002)"
             ry="2.5158"
             height="15.724"
             width="15.724"
             y="591.81"
             x="381.87" />
          <rect
             id="rect6315"
             style="opacity:0.96;fill:#000000"
             transform="rotate(0.095002)"
             ry="2.5158"
             height="15.724"
             width="15.724"
             y="591.81"
             x="401.69" />
          <rect
             id="rect6317"
             style="opacity:0.96;fill:#000000"
             transform="rotate(0.095002)"
             ry="2.5158"
             height="15.724"
             width="15.724"
             y="591.81"
             x="422.97" />
          <rect
             id="rect6319"
             style="opacity:0.96;fill:#000000"
             transform="rotate(0.095002)"
             ry="2.5158"
             height="15.724"
             width="15.724"
             y="591.81"
             x="442.04999" />
          <rect
             id="rect6321"
             style="opacity:0.96;fill:#000000"
             transform="rotate(0.095002)"
             ry="2.5158"
             height="15.724"
             width="15.724"
             y="591.81"
             x="464.06" />
          <rect
             id="rect6323"
             style="opacity:0.96;fill:#000000"
             transform="rotate(0.095002)"
             ry="2.5158"
             height="15.724"
             width="15.724"
             y="591.81"
             x="484.60001" />
          <rect
             id="rect6325"
             style="opacity:0.96;fill:#000000"
             transform="rotate(0.095002)"
             ry="2.5158"
             height="15.724"
             width="15.724"
             y="591.81"
             x="506.62" />
          <rect
             id="rect6327"
             style="opacity:0.96;fill:#000000"
             transform="rotate(0.095002)"
             ry="2.5158"
             height="15.724"
             width="15.724"
             y="591.81"
             x="527.15997" />
          <rect
             id="rect6329"
             style="opacity:0.96;fill:#000000"
             transform="rotate(0.095002)"
             ry="2.5158"
             height="15.724"
             width="15.724"
             y="591.81"
             x="549.17999" />
          <rect
             id="rect6331"
             style="opacity:0.96;fill:#000000"
             transform="rotate(0.095002)"
             ry="2.5158"
             height="15.724"
             width="15.724"
             y="591.81"
             x="569.71997" />
          <rect
             id="rect6333"
             style="opacity:0.96;fill:#000000"
             transform="rotate(0.095002)"
             ry="2.5158"
             height="15.724"
             width="15.724"
             y="591.81"
             x="591.73999" />
          <rect
             id="rect6335"
             style="opacity:0.96;fill:#000000"
             transform="rotate(0.095002)"
             ry="2.5158"
             height="15.724"
             width="25.158001"
             y="591.81"
             x="613.28003" />
          <rect
             id="rect6337"
             style="opacity:0.96;fill:#000000"
             transform="rotate(0.095002)"
             ry="2.5158"
             height="15.724"
             width="30.177999"
             y="611.81"
             x="331.01001" />
          <rect
             id="rect6339"
             style="opacity:0.96;fill:#000000"
             transform="rotate(0.095002)"
             ry="2.5158"
             height="15.724"
             width="15.724"
             y="611.81"
             x="366.01001" />
          <rect
             id="rect6341"
             style="opacity:0.96;fill:#000000"
             transform="rotate(0.095002)"
             ry="2.5158"
             height="15.724"
             width="15.724"
             y="611.81"
             x="386.57001" />
          <rect
             id="rect6343"
             style="opacity:0.96;fill:#000000"
             transform="rotate(0.095002)"
             ry="2.5158"
             height="15.724"
             width="15.724"
             y="611.81"
             x="406.73999" />
          <rect
             id="rect6345"
             style="opacity:0.96;fill:#000000"
             transform="rotate(0.095002)"
             ry="2.5158"
             height="15.724"
             width="15.724"
             y="611.81"
             x="426.92999" />
          <rect
             id="rect6347"
             style="opacity:0.96;fill:#000000"
             transform="rotate(0.095002)"
             ry="2.5158"
             height="15.724"
             width="15.724"
             y="611.81"
             x="447.47" />
          <rect
             id="rect6349"
             style="opacity:0.96;fill:#000000"
             transform="rotate(0.095002)"
             ry="2.5158"
             height="15.724"
             width="15.724"
             y="611.81"
             x="468.75" />
          <rect
             id="rect6351"
             style="opacity:0.96;fill:#000000"
             transform="rotate(0.095002)"
             ry="2.5158"
             height="15.724"
             width="15.724"
             y="611.81"
             x="490.03" />
          <rect
             id="rect6353"
             style="opacity:0.96;fill:#000000"
             transform="rotate(0.095002)"
             ry="2.5158"
             height="15.724"
             width="15.724"
             y="611.81"
             x="511.31" />
          <rect
             id="rect6355"
             style="opacity:0.96;fill:#000000"
             transform="rotate(0.095002)"
             ry="2.5158"
             height="15.724"
             width="15.724"
             y="611.81"
             x="531.85999" />
          <rect
             id="rect6357"
             style="opacity:0.96;fill:#000000"
             transform="rotate(0.095002)"
             ry="2.5158"
             height="15.724"
             width="15.724"
             y="611.81"
             x="552.40002" />
          <rect
             id="rect6359"
             style="opacity:0.96;fill:#000000"
             transform="rotate(0.095002)"
             ry="2.5158"
             height="15.724"
             width="15.724"
             y="611.81"
             x="574.41998" />
          <rect
             id="rect6361"
             style="opacity:0.96;fill:#000000"
             transform="rotate(0.095002)"
             ry="2.5158"
             height="15.724"
             width="40.349998"
             y="611.81"
             x="596.42999" />
          <rect
             id="rect6363"
             style="opacity:0.96;fill:#000000"
             transform="rotate(0.095002)"
             ry="2.5158"
             height="15.724"
             width="39.073002"
             y="631.81"
             x="331.04999" />
          <rect
             id="rect6365"
             style="opacity:0.96;fill:#000000"
             transform="rotate(0.095002)"
             ry="2.5158"
             height="15.724"
             width="15.724"
             y="631.81"
             x="374.57001" />
          <rect
             id="rect6367"
             style="opacity:0.96;fill:#000000"
             transform="rotate(0.095002)"
             ry="2.5158"
             height="15.724"
             width="15.724"
             y="631.81"
             x="395.13" />
          <rect
             id="rect6369"
             style="opacity:0.96;fill:#000000"
             transform="rotate(0.095002)"
             ry="2.5158"
             height="15.724"
             width="15.724"
             y="631.81"
             x="415.29001" />
          <rect
             id="rect6371"
             style="opacity:0.96;fill:#000000"
             transform="rotate(0.095002)"
             ry="2.5158"
             height="15.724"
             width="15.724"
             y="631.81"
             x="435.48001" />
          <rect
             id="rect6373"
             style="opacity:0.96;fill:#000000"
             transform="rotate(0.095002)"
             ry="2.5158"
             height="15.724"
             width="15.724"
             y="631.81"
             x="456.03" />
          <rect
             id="rect6375"
             style="opacity:0.96;fill:#000000"
             transform="rotate(0.095002)"
             ry="2.5158"
             height="15.724"
             width="15.724"
             y="631.81"
             x="477.31" />
          <rect
             id="rect6377"
             style="opacity:0.96;fill:#000000"
             transform="rotate(0.095002)"
             ry="2.5158"
             height="15.724"
             width="15.724"
             y="631.81"
             x="498.59" />
          <rect
             id="rect6379"
             style="opacity:0.96;fill:#000000"
             transform="rotate(0.095002)"
             ry="2.5158"
             height="15.724"
             width="15.724"
             y="631.81"
             x="519.87" />
          <rect
             id="rect6381"
             style="opacity:0.96;fill:#000000"
             transform="rotate(0.095002)"
             ry="2.5158"
             height="15.724"
             width="15.724"
             y="631.81"
             x="540.41998" />
          <rect
             id="rect6383"
             style="opacity:0.96;fill:#000000"
             transform="rotate(0.095002)"
             ry="2.5158"
             height="15.724"
             width="17.205999"
             y="631.81"
             x="560.96002" />
          <rect
             id="rect6385"
             style="opacity:0.96;fill:#000000"
             transform="rotate(0.095002)"
             ry="2.5158"
             height="15.724"
             width="51.52"
             y="631.81"
             x="585.20001" />
          <rect
             id="rect6387"
             style="opacity:0.96;fill:#000000"
             transform="rotate(0.095002)"
             ry="2.5158"
             height="15.724"
             width="26.101"
             y="651.81"
             x="331.07999" />
          <rect
             id="rect6389"
             style="opacity:0.96;fill:#000000"
             transform="rotate(0.095002)"
             ry="2.5158"
             height="15.724"
             width="19.801001"
             y="651.81"
             x="360.51999" />
          <rect
             id="rect6391"
             style="opacity:0.96;fill:#000000"
             transform="rotate(0.095002)"
             ry="2.5158"
             height="15.724"
             width="19.954"
             y="651.81"
             x="384.78" />
          <rect
             id="rect6393"
             style="opacity:0.96;fill:#000000"
             transform="rotate(0.095002)"
             ry="2.5158"
             height="15.724"
             width="118.08"
             y="651.81"
             x="411.53" />
          <rect
             id="rect6395"
             style="opacity:0.96;fill:#000000"
             transform="rotate(0.095002)"
             ry="2.5158"
             height="15.724"
             width="19.43"
             y="651.81"
             x="537.84998" />
          <rect
             id="rect6397"
             style="opacity:0.96;fill:#000000"
             transform="rotate(0.095002)"
             ry="2.5158"
             height="15.724"
             width="20.542"
             y="651.81"
             x="563.59003" />
          <rect
             id="rect6399"
             style="opacity:0.96;fill:#000000"
             transform="rotate(0.095002)"
             ry="2.5158"
             height="15.724"
             width="25.525999"
             y="651.81"
             x="589.83002" />
        </g>
        <path
           id="path7015"
           style="fill:#000000"
           d="m -1264.7,250.87 c 0.7839,0.72976 7.9193,7.905 15.808,15.984 l 14.29,14.689 3.4334,-3.7465 c 8.7057,-9.3341 9.9687,-10.967 10.044,-11.219 0,0 -9.1341,-13.466 -9.8627,-22.117 -0.379,-4.5113 0.6726,-14.206 0.6726,-14.206 0,0 -1.5861,-1.8167 -28.601,-29.635 -15.565,-16.028 -29.004,-29.86 -29.004,-29.86 l -28.36,26.827 c 0,0 5.159,5.5549 11.51,12.08 6.3507,6.525 11.443,12.857 11.443,12.857 l -127.05,136.82 c 0,0 6.368,6.3633 13.657,13.196 13.208,12.382 13.959,12.143 13.959,12.143 0,0 74.757,-71.402 128.06,-133.81 z m 24.443,-55.078 c -0.065,0.12828 -0.5302,1.0144 -0.558,1.0736 -0.074,0.15739 0.1692,0.17019 0.6494,0.0769 l -0.091,-1.1506 v 2e-4 z" />
      </g>
    </g>
  </g>
</svg>
